<svg xmlns="http://www.w3.org/2000/svg" viewBox="0 0 64 64">
  <defs>
    <linearGradient id="g" x1="0%" y1="0%" x2="100%" y2="100%">
      <stop offset="0%" stop-color="#ef4444"/>
      <stop offset="100%" stop-color="#7c3aed"/>
    </linearGradient>
  </defs>
  <rect width="64" height="64" rx="14" fill="#0f172a"/>
  <path d="M18 40c2.8 3.8 7.6 6 14 6 8 0 14-4.4 14-11.4C46 28.4 39.6 26 32 26c-3.6 0-6 .8-8.6 2.2-.8.4-1.2 1.2-1.2 2 0 1.4 1.4 2.6 3.2 2.6 1 0 1.6-.2 2.6-.6 1-.4 2-.6 3.4-.6 3 0 5.4 1.2 5.4 3.6 0 2.2-2.4 3.6-5.4 3.6-2.6 0-4.6-.8-5.8-2.4-.6-.8-1.4-1.2-2.4-1.2-1.6 0-3.2 1.2-3.2 3 0 .6.2 1.2.6 1.8Z" fill="url(#g)" />
  <path d="M32 14c-1.8 0-3.4 1.4-3.4 3.4 0 1.8 1.6 3.4 3.4 3.4 1.8 0 3.4-1.6 3.4-3.4C35.4 15.4 33.8 14 32 14Z" fill="#f8fafc" />
</svg>
