<svg xmlns="http://www.w3.org/2000/svg" viewBox="0 0 120 120">
  <defs>
    <linearGradient id="g1" x1="0%" y1="0%" x2="100%" y2="100%">
      <stop offset="0%" stop-color="#ef4444"/>
      <stop offset="100%" stop-color="#7c3aed"/>
    </linearGradient>
  </defs>
  <rect width="120" height="120" rx="28" fill="#0f172a"/>
  <path d="M32 76c5 10 17 16 30 16 18 0 32-10.2 32-26.2C94 49.8 77.2 44 62 44c-8 0-13.4 1.8-19.4 4.8-2 1-2.6 2.6-2.6 4.4 0 3 3 5.8 7 5.8 2.2 0 3.6-.6 5.8-1.4 2.2-.8 4.4-1.2 7.4-1.2 6.6 0 12 2.6 12 8 0 4.8-5.4 8-12 8-5.8 0-10.4-1.8-13-5.2-1.4-1.6-3.2-2.6-5.2-2.6-3.6 0-7 2.6-7 6.6 0 1.4.4 2.8 1 4Z" fill="url(#g1)"/>
  <circle cx="62" cy="29" r="8" fill="#f8fafc"/>
</svg>
